<?xml version="1.0" encoding="UTF-8" standalone="no"?>
<svg
   xmlns:dc="http://purl.org/dc/elements/1.1/"
   xmlns:cc="http://creativecommons.org/ns#"
   xmlns:rdf="http://www.w3.org/1999/02/22-rdf-syntax-ns#"
   xmlns:svg="http://www.w3.org/2000/svg"
   xmlns="http://www.w3.org/2000/svg"
   id="svg8"
   version="1.1"
   viewBox="0 0 48 48"
   height="48"
   width="48">
  <defs
     id="defs2" />
  <metadata
     id="metadata5">
    <rdf:RDF>
      <cc:Work
         rdf:about="">
        <dc:format>image/svg+xml</dc:format>
        <dc:type
           rdf:resource="http://purl.org/dc/dcmitype/StillImage" />
        <dc:title></dc:title>
      </cc:Work>
    </rdf:RDF>
  </metadata>
  <rect
     style="fill:#ffffff;fill-opacity:1;stroke-width:0.88852334;stroke:none"
     y="9.152544"
     x="7.9322033"
     height="28.474575"
     width="32.94915"
     id="rect814" />
  <g
     id="layer1"
     transform="matrix(0.17755882,0,0,0.17755882,6.7597098,-1.3060883)">
    <path
       id="path3831"
       d="m 90.161246,277.01049 c -27.453362,-1.50387 -51.254612,-9.99541 -72.231252,-25.76984 -18.09494029,-13.60741 -32.85654,-31.27992 -42.09184,-50.39213 -6.76909,-14.00847 -10.58838,-28.03449 -12.28518,-45.11634 -0.47461,-4.7779 -0.62508,-16.64539 -0.27845,-21.96041 2.30988,-35.418298 15.95184,-64.180378 42.3523497,-89.293778 14.3387303,-13.63967 31.5000703,-24.00826 49.2125003,-29.73335 21.02211,-6.7948604 44.123012,-8.3535204 66.939586,-4.51653 29.78222,5.00838 56.35005,20.32014 77.72005,44.79219 19.44529,22.26794 29.92705,47.534938 32.10052,77.380498 0.4657,6.39477 0.18704,20.5764 -0.52083,26.50638 -3.78314,31.69235 -16.80665,57.79522 -40.10614,80.38436 -22.75825,22.06437 -48.85209,34.23928 -79.77694,37.22243 -4.17931,0.40317 -17.149514,0.70932 -21.034374,0.49652 z M 108.4175,209.47138 c 14.27764,-2.55537 26.13062,-8.54129 36.20704,-18.28503 6.03173,-5.8326 10.12338,-11.43896 13.80659,-18.91771 4.27771,-8.6859 6.5332,-17.24216 6.92228,-26.25989 l 0.16267,-3.77032 h 12.85775 12.85774 l -17.13125,-17.13125 -17.13126,-17.13126 -16.93359,16.93205 c -9.31348,9.31262 -16.9336,17.02168 -16.9336,17.13125 0,0.10957 5.715,0.19921 12.7,0.19921 h 12.7 v 1.1626 c 0,2.25999 -0.56148,6.68033 -1.23025,9.68532 -0.93887,4.21859 -1.98443,7.25613 -3.80566,11.05613 -5.12978,10.70329 -13.35999,18.94035 -24.10677,24.12682 -7.56096,3.64898 -15.43049,5.27742 -23.906274,4.94694 -7.25205,-0.28277 -13.28638,-1.71013 -19.529432,-4.61951 l -2.5961,-1.20982 -6.19574,6.19153 c -3.40765,3.40534 -6.10894,6.27441 -6.00286,6.37572 0.10608,0.1013 1.49198,0.90406 3.07977,1.78391 7.4375,4.12136 16.030772,6.97032 24.382092,8.08351 4.46726,0.59546 15.646404,0.398 19.826854,-0.3502 z m -53.710426,-50.29961 16.93179,-16.93334 h -12.76537 -12.76537 v -1.33334 c 0,-0.73334 0.12593,-2.48951 0.27986,-3.9026 2.21249,-20.3113 15.68094,-37.093118 34.866602,-43.444128 12.23502,-4.05015 25.217524,-3.34266 37.309294,2.0332 l 2.73804,1.21731 6.20534,-6.20534 6.20534,-6.20534 -2.85797,-1.61585 c -6.98463,-3.94901 -14.59486,-6.6226 -22.85224,-8.02836 -4.20448,-0.71579 -12.849144,-0.98083 -17.336564,-0.53153 -33.574902,3.36164 -59.891212,30.894738 -61.455372,64.296898 l -0.16796,3.58679 -12.69662,0.0687 -12.6966203,0.0687 16.9291803,16.93073 c 9.31105,9.3119 16.98941,16.93073 17.06302,16.93073 0.0736,0 7.75314,-7.62 17.06562,-16.93333 z"
       style="fill:#506efd;stroke-width:0.26458332" />
  </g>
</svg>
